<?xml version="1.0" encoding="UTF-8"?>
<svg id="uuid-354f20db-7684-47a8-88b4-b287eeeac8b4" data-name="Layer 1" xmlns="http://www.w3.org/2000/svg" viewBox="0 0 497.51 125.58">
  <defs>
    <style>
      .uuid-793e57e6-4abb-4d65-8f9d-97c24be3256e {
        fill: #f47b46;
      }
    </style>
  </defs>
  <path class="uuid-793e57e6-4abb-4d65-8f9d-97c24be3256e" d="M56.94,110.99c-24.92,0-45.12-20.2-45.12-45.12S32.02,20.74,56.94,20.74c4.29,0,8.43.61,12.35,1.73v-10.8c0-6.45-5.23-11.67-11.67-11.67H11.67C5.23,0,0,5.23,0,11.67v102.24c0,6.45,5.23,11.67,11.67,11.67h45.95c6.45,0,11.67-5.23,11.67-11.67v-4.65c-3.93,1.12-8.07,1.73-12.35,1.73Z"/>
  <path class="uuid-793e57e6-4abb-4d65-8f9d-97c24be3256e" d="M69.3,109.26c18.91-5.37,32.77-22.76,32.77-43.4s-13.86-38.02-32.77-43.4v86.79Z"/>
  <g>
    <path class="uuid-793e57e6-4abb-4d65-8f9d-97c24be3256e" d="M146.02,89.32c-3.63-2.23-6.41-5.28-8.32-9.13-1.91-3.85-2.87-8.19-2.87-13,0-5.74,1.2-10.68,3.61-14.8,2.41-4.12,5.67-7.25,9.79-9.39,4.12-2.14,8.71-3.2,13.77-3.2,2.5,0,4.99.25,7.48.74,2.48.49,4.82,1.23,7.03,2.21v13.4h-2.95c-.44-4.32-1.67-7.44-3.68-9.35-2.01-1.91-4.86-2.87-8.54-2.87s-6.8.85-9.5,2.54c-2.7,1.69-4.79,4.17-6.26,7.44-1.47,3.27-2.21,7.23-2.21,11.89,0,7.36,1.64,12.86,4.93,16.5,3.29,3.63,7.61,5.45,12.96,5.45,3.29,0,6.16-.63,8.62-1.88,2.45-1.25,4.44-2.86,5.97-4.82l2.13,1.99c-1.72,2.8-4.17,5.11-7.36,6.92-3.19,1.82-7.05,2.73-11.56,2.73-5.06,0-9.4-1.12-13.04-3.35Z"/>
    <path class="uuid-793e57e6-4abb-4d65-8f9d-97c24be3256e" d="M181.76,91.71v-2.36c1.08,0,2.17-.25,3.28-.74,1.1-.49,1.66-1.52,1.66-3.09v-37.56c0-1.72-.44-2.95-1.33-3.68-.88-.74-2.28-1.1-4.2-1.1v-2.36l10.09-2.87h2.43v24.38h.52c1.18-2.11,2.74-3.82,4.68-5.12,1.94-1.3,4.23-1.95,6.89-1.95,3.29,0,5.9.98,7.84,2.95,1.94,1.96,2.91,4.69,2.91,8.17v19.15c0,1.57.55,2.6,1.66,3.09,1.1.49,2.2.74,3.28.74v2.36h-16.94v-2.36c1.13,0,2.25-.25,3.35-.74,1.1-.49,1.66-1.52,1.66-3.09v-17.23c0-5.16-2.09-7.73-6.26-7.73-1.96,0-3.79.53-5.49,1.58-1.69,1.06-3.06,2.61-4.09,4.68v18.71c0,1.57.55,2.6,1.66,3.09,1.1.49,2.22.74,3.35.74v2.36h-16.94Z"/>
    <path class="uuid-793e57e6-4abb-4d65-8f9d-97c24be3256e" d="M224,91.71v-2.36c1.13,0,2.25-.25,3.35-.74,1.1-.49,1.66-1.52,1.66-3.09v-19.37c0-1.87-.37-3.14-1.11-3.83-.74-.69-2.04-1.03-3.9-1.03v-2.43l9.35-3.54,2.21,8.76h.37c.98-2.45,2.26-4.54,3.83-6.26,1.57-1.72,3.53-2.58,5.89-2.58.84,0,1.6.1,2.28.29.69.2,1.18.42,1.47.66v9.8h-2.21c-.15-1.13-.54-2.01-1.18-2.65-.64-.64-1.55-.96-2.73-.96-1.03,0-2.1.45-3.2,1.36-1.1.91-2.04,2.05-2.8,3.42-.76,1.38-1.19,2.75-1.29,4.12v14.21c0,1.57.7,2.6,2.1,3.09,1.4.49,2.81.74,4.23.74v2.36h-18.34Z"/>
    <path class="uuid-793e57e6-4abb-4d65-8f9d-97c24be3256e" d="M259.43,90.28c-2.63-1.59-4.67-3.79-6.11-6.59-1.45-2.8-2.17-5.96-2.17-9.5s.72-6.9,2.17-9.79c1.45-2.9,3.49-5.14,6.11-6.74,2.63-1.6,5.61-2.39,8.95-2.39s6.32.79,8.95,2.36c2.63,1.57,4.68,3.77,6.15,6.59,1.47,2.82,2.21,6.08,2.21,9.76s-.71,6.79-2.14,9.61c-1.42,2.82-3.44,5.04-6.04,6.67-2.6,1.62-5.62,2.43-9.06,2.43s-6.4-.8-9.02-2.39ZM275.86,85.34c1.64-2.38,2.47-5.71,2.47-9.98,0-4.71-.92-8.62-2.76-11.71-1.84-3.09-4.41-4.64-7.7-4.64-2.8,0-5.04,1.2-6.74,3.61-1.69,2.41-2.54,5.79-2.54,10.16,0,3,.42,5.71,1.25,8.14.83,2.43,2.06,4.37,3.68,5.82,1.62,1.45,3.53,2.17,5.74,2.17,2.75,0,4.95-1.19,6.59-3.57Z"/>
    <path class="uuid-793e57e6-4abb-4d65-8f9d-97c24be3256e" d="M287.57,91.71v-2.36c1.13,0,2.25-.25,3.35-.74,1.1-.49,1.66-1.52,1.66-3.09v-19.37c0-1.87-.37-3.14-1.11-3.83-.74-.69-2.04-1.03-3.9-1.03v-2.43l9.13-3.54,2.43,7.14h.44c1.23-2.21,2.85-3.96,4.86-5.27,2.01-1.3,4.39-1.95,7.14-1.95,3.34,0,5.98.98,7.92,2.95,1.94,1.96,2.91,4.69,2.91,8.17v19.15c0,1.57.55,2.6,1.66,3.09,1.1.49,2.2.74,3.28.74v2.36h-16.94v-2.36c1.13,0,2.23-.25,3.31-.74,1.08-.49,1.62-1.52,1.62-3.09v-17.23c0-5.16-2.09-7.73-6.26-7.73-1.96,0-3.79.53-5.49,1.58-1.69,1.06-3.03,2.61-4.01,4.68v18.71c0,1.57.55,2.6,1.66,3.09,1.1.49,2.2.74,3.28.74v2.36h-16.94Z"/>
    <path class="uuid-793e57e6-4abb-4d65-8f9d-97c24be3256e" d="M330.66,91.71v-2.36c1.08,0,2.17-.25,3.28-.74,1.1-.49,1.66-1.52,1.66-3.09v-19.37c0-1.23-.14-2.17-.41-2.84-.27-.66-.76-1.12-1.47-1.36-.71-.24-1.73-.37-3.06-.37v-2.36l9.28-2.95h2.65v29.24c0,1.57.55,2.6,1.66,3.09,1.1.49,2.22.74,3.35.74v2.36h-16.94ZM335.15,47.42c-.93-.91-1.4-2.05-1.4-3.42s.47-2.43,1.4-3.31c.93-.88,2.06-1.33,3.39-1.33s2.45.44,3.39,1.33c.93.88,1.4,1.99,1.4,3.31s-.47,2.52-1.4,3.42c-.93.91-2.06,1.36-3.39,1.36s-2.46-.45-3.39-1.36Z"/>
    <path class="uuid-793e57e6-4abb-4d65-8f9d-97c24be3256e" d="M350.9,91.71v-2.36c1.13,0,2.25-.25,3.35-.74,1.1-.49,1.66-1.52,1.66-3.09v-37.56c0-1.37-.15-2.38-.44-3.02-.29-.64-.79-1.07-1.47-1.29-.69-.22-1.72-.33-3.09-.33v-2.36l9.5-3.02h2.5v47.58c0,1.57.55,2.6,1.66,3.09,1.11.49,2.2.74,3.28.74v2.36h-16.94Z"/>
    <path class="uuid-793e57e6-4abb-4d65-8f9d-97c24be3256e" d="M377.72,90.28c-2.63-1.59-4.66-3.79-6.11-6.59-1.45-2.8-2.17-5.96-2.17-9.5s.72-6.9,2.17-9.79c1.45-2.9,3.48-5.14,6.11-6.74,2.63-1.6,5.61-2.39,8.95-2.39s6.32.79,8.95,2.36c2.63,1.57,4.68,3.77,6.15,6.59,1.47,2.82,2.21,6.08,2.21,9.76s-.71,6.79-2.14,9.61c-1.42,2.82-3.44,5.04-6.04,6.67-2.6,1.62-5.62,2.43-9.06,2.43s-6.4-.8-9.02-2.39ZM394.14,85.34c1.65-2.38,2.47-5.71,2.47-9.98,0-4.71-.92-8.62-2.76-11.71s-4.41-4.64-7.7-4.64c-2.8,0-5.04,1.2-6.74,3.61-1.69,2.41-2.54,5.79-2.54,10.16,0,3,.42,5.71,1.25,8.14.83,2.43,2.06,4.37,3.68,5.82,1.62,1.45,3.53,2.17,5.74,2.17,2.75,0,4.95-1.19,6.59-3.57Z"/>
    <path class="uuid-793e57e6-4abb-4d65-8f9d-97c24be3256e" d="M413.45,106.7c-2.18-.81-3.9-1.96-5.15-3.46-1.25-1.5-1.88-3.25-1.88-5.27,0-2.26.81-4.23,2.43-5.93s3.9-3.13,6.85-4.31l1.25,1.69c-1.77.93-3.09,1.95-3.98,3.06-.88,1.1-1.32,2.37-1.32,3.79,0,2.26.98,4.08,2.95,5.45,1.96,1.37,4.44,2.06,7.44,2.06,3.39,0,5.95-.56,7.7-1.69,1.74-1.13,2.61-2.65,2.61-4.57,0-1.18-.38-2.15-1.14-2.91-.76-.76-1.84-1.36-3.24-1.8-1.4-.44-3.45-.96-6.15-1.55-3.24-.74-5.76-1.4-7.55-1.99-1.79-.59-3.15-1.3-4.09-2.14-.93-.83-1.4-1.94-1.4-3.31,0-1.82.69-3.28,2.06-4.38,1.37-1.11,3.09-2.05,5.15-2.84l2.43,1.4c-1.52.64-2.58,1.22-3.17,1.73s-.88,1.09-.88,1.73c0,.54.25.98.74,1.32.49.34,1.35.68,2.58.99,1.23.32,3.29.77,6.19,1.36,3.49.74,6.25,1.56,8.29,2.47,2.04.91,3.51,1.99,4.42,3.24.91,1.25,1.36,2.81,1.36,4.68,0,2.16-.7,4.18-2.1,6.08-1.4,1.89-3.4,3.41-6,4.57-2.6,1.15-5.6,1.73-8.99,1.73-2.75,0-5.22-.41-7.4-1.22ZM411.83,76.03c-2.53-2.21-3.79-5.11-3.79-8.69,0-2.4.6-4.52,1.8-6.33,1.2-1.82,2.84-3.23,4.9-4.23,2.06-1.01,4.37-1.51,6.92-1.51s4.94.49,7.03,1.47c2.09.98,3.72,2.38,4.9,4.2,1.18,1.82,1.77,3.93,1.77,6.33,0,3.63-1.25,6.55-3.76,8.76-2.5,2.21-5.79,3.31-9.87,3.31s-7.38-1.11-9.91-3.31ZM426.97,74.19c1.08-1.47,1.62-3.46,1.62-5.97,0-1.82-.28-3.49-.85-5.01-.56-1.52-1.4-2.74-2.5-3.65-1.1-.91-2.42-1.36-3.94-1.36-2.01,0-3.6.74-4.75,2.21-1.15,1.47-1.73,3.46-1.73,5.97,0,1.77.29,3.41.88,4.93.59,1.52,1.46,2.75,2.61,3.68,1.15.93,2.51,1.4,4.09,1.4,1.96,0,3.49-.74,4.57-2.21ZM430.8,53.2c0-.74-.14-1.39-.41-1.95-.27-.56-.68-1.02-1.22-1.36v-2.06h6.56c.2.25.41.68.63,1.29.22.61.33,1.24.33,1.88,0,1.91-.76,3.61-2.28,5.08-1.52,1.47-3.68,2.65-6.48,3.54l-.81-1.1c2.46-1.42,3.68-3.19,3.68-5.3Z"/>
    <path class="uuid-793e57e6-4abb-4d65-8f9d-97c24be3256e" d="M441.17,91.71v-2.36c1.08,0,2.17-.25,3.28-.74,1.1-.49,1.66-1.52,1.66-3.09v-19.37c0-1.23-.14-2.17-.41-2.84-.27-.66-.76-1.12-1.47-1.36-.71-.24-1.73-.37-3.06-.37v-2.36l9.28-2.95h2.65v29.24c0,1.57.55,2.6,1.66,3.09,1.1.49,2.22.74,3.35.74v2.36h-16.94ZM445.67,47.42c-.93-.91-1.4-2.05-1.4-3.42s.47-2.43,1.4-3.31c.93-.88,2.06-1.33,3.39-1.33s2.45.44,3.39,1.33c.93.88,1.4,1.99,1.4,3.31s-.47,2.52-1.4,3.42c-.93.91-2.06,1.36-3.39,1.36s-2.46-.45-3.39-1.36Z"/>
    <path class="uuid-793e57e6-4abb-4d65-8f9d-97c24be3256e" d="M464.15,88.51c1.18-.56,2.26-1.53,3.24-2.91l9.13-12,2.28,2.58-7.07,9.94c-.64.88-.71,1.65-.22,2.28.49.64,1.35.96,2.58.96h.81v2.36h-13.85v-2.36c.88,0,1.91-.28,3.09-.85ZM481.68,89.36h.81c1.42,0,2.21-.28,2.36-.85.15-.56-.12-1.36-.81-2.39l-17.6-24.82c-.54-.78-1.27-1.42-2.17-1.91-.91-.49-1.73-.74-2.47-.74v-2.36h15.54v2.36c-1.62,0-2.6.41-2.95,1.22-.34.81.07,2,1.25,3.57l14.95,21.06c1.08,1.47,2.23,2.65,3.46,3.54,1.23.88,2.38,1.33,3.46,1.33v2.36h-15.83v-2.36ZM477.99,73.52l7.51-10.09c1.13-1.52,1.52-2.7,1.18-3.54-.34-.83-1.3-1.25-2.87-1.25v-2.36h12.74v2.36c-.98,0-1.94.23-2.87.7-.93.47-1.72,1.09-2.36,1.88l-10.83,14.21-2.5-1.91Z"/>
  </g>
  <g>
    <path class="uuid-793e57e6-4abb-4d65-8f9d-97c24be3256e" d="M85.08,17.56c-3.36,0-6.1-2.74-6.1-6.1s2.74-6.1,6.1-6.1,6.1,2.74,6.1,6.1-2.74,6.1-6.1,6.1ZM85.08,6.59c-2.69,0-4.87,2.19-4.87,4.87s2.19,4.87,4.87,4.87,4.87-2.19,4.87-4.87-2.19-4.87-4.87-4.87Z"/>
    <path class="uuid-793e57e6-4abb-4d65-8f9d-97c24be3256e" d="M85.08,13.37c-1.05,0-1.9-.85-1.9-1.9s.85-1.9,1.9-1.9c.31,0,.6.08.86.21v-1.32c-.27-.08-.56-.12-.86-.12-1.73,0-3.13,1.4-3.13,3.13s1.4,3.13,3.13,3.13c.3,0,.58-.04.86-.12v-1.32c-.26.13-.55.21-.86.21Z"/>
  </g>
</svg>