<svg width="32" height="32" viewBox="0 0 32 32" fill="none" xmlns="http://www.w3.org/2000/svg">
<path d="M28.576 10.336C28.72 9.84 28.8 9.312 28.8 8.8C28.8 5.888 26.576 3.488 23.728 3.232C23.4003 2.29107 22.7888 1.47494 21.9779 0.896082C21.1669 0.317229 20.1964 0.00415202 19.2 0C17.968 0 16.848 0.48 16 1.248C15.152 0.48 14.032 0 12.8 0C10.72 0 8.944 1.328 8.272 3.216C6.88424 3.35106 5.59635 3.99753 4.65888 5.02964C3.7214 6.06175 3.20139 7.40569 3.2 8.8C3.2 9.328 3.28 9.84 3.424 10.336C1.392 11.424 0 13.584 0 16C0 17.728 0.688 19.344 1.872 20.528C1.696 21.136 1.6 21.76 1.6 22.4C1.6 25.536 3.856 28.144 6.896 28.688C7.776 30.656 9.776 32 12 32C13.568 32 14.976 31.344 16 30.304C17.024 31.344 18.432 32 20 32C22.224 32 24.208 30.672 25.104 28.704C26.5865 28.4425 27.9297 27.6674 28.898 26.5148C29.8664 25.3621 30.3981 23.9054 30.4 22.4C30.4 21.76 30.304 21.136 30.128 20.528C31.328 19.328 32 17.712 32 16C32 13.6 30.624 11.424 28.576 10.336ZM12 28.8C10.864 28.8 9.872 28 9.648 26.88L9.312 25.6H8C6.24 25.6 4.8 24.16 4.8 22.4C4.8 21.84 4.928 21.312 5.2 20.832L5.936 19.52L4.688 18.704C3.76 18.096 3.2 17.088 3.2 16C3.2 14.432 4.352 13.088 5.888 12.848L8.592 12.432L6.896 10.272C6.576 9.856 6.384 9.328 6.384 8.8C6.384 7.472 7.456 6.4 8.784 6.4C8.96 6.4 9.12 6.416 9.28 6.448L11.184 6.72V4.784C11.184 3.904 11.904 3.184 12.784 3.184C13.664 3.184 14.384 3.904 14.384 4.784V26.384C14.384 27.712 13.312 28.784 11.984 28.784L12 28.8ZM27.312 18.704L26.064 19.52L26.8 20.832C27.072 21.312 27.2 21.84 27.2 22.4C27.2 24.16 25.76 25.6 23.92 25.6H22.608L22.352 26.88C22.128 27.984 21.136 28.8 20 28.8C18.672 28.8 17.6 27.728 17.6 26.4V4.8C17.6 3.92 18.32 3.2 19.2 3.2C20.08 3.2 20.8 3.92 20.8 4.88V6.816L22.704 6.464C22.864 6.432 23.04 6.416 23.2 6.416C23.649 6.41619 24.0889 6.5425 24.4696 6.78054C24.8503 7.01857 25.1565 7.35876 25.3533 7.76234C25.5501 8.16591 25.6296 8.61665 25.5827 9.0632C25.5357 9.50974 25.3644 9.93412 25.088 10.288L23.392 12.448L26.096 12.864C27.632 13.104 28.784 14.464 28.784 16.016C28.784 17.104 28.224 18.128 27.296 18.72L27.312 18.704Z" fill="#FFFFFF"/>
</svg>
