<svg width="20" height="20" viewBox="0 0 20 20" fill="none" xmlns="http://www.w3.org/2000/svg">
<path d="M17.86 6.46C17.95 6.15 18 5.82 18 5.5C18 3.68 16.61 2.18 14.83 2.02C14.6252 1.43192 14.243 0.921835 13.7362 0.560051C13.2293 0.198268 12.6227 0.00259501 12 0C11.23 0 10.53 0.3 10 0.78C9.47 0.3 8.77 0 8 0C6.7 0 5.59 0.83 5.17 2.01C4.30265 2.09441 3.49772 2.49846 2.9118 3.14352C2.32588 3.78859 2.00087 4.62855 2 5.5C2 5.83 2.05 6.15 2.14 6.46C0.87 7.14 0 8.49 0 10C0 11.08 0.43 12.09 1.17 12.83C1.06 13.21 1 13.6 1 14C1 15.96 2.41 17.59 4.31 17.93C4.86 19.16 6.11 20 7.5 20C8.48 20 9.36 19.59 10 18.94C10.64 19.59 11.52 20 12.5 20C13.89 20 15.13 19.17 15.69 17.94C16.6166 17.7765 17.4561 17.2921 18.0613 16.5717C18.6665 15.8513 18.9988 14.9409 19 14C19 13.6 18.94 13.21 18.83 12.83C19.58 12.08 20 11.07 20 10C20 8.5 19.14 7.14 17.86 6.46ZM7.5 18C6.79 18 6.17 17.5 6.03 16.8L5.82 16H5C3.9 16 3 15.1 3 14C3 13.65 3.08 13.32 3.25 13.02L3.71 12.2L2.93 11.69C2.35 11.31 2 10.68 2 10C2 9.02 2.72 8.18 3.68 8.03L5.37 7.77L4.31 6.42C4.11 6.16 3.99 5.83 3.99 5.5C3.99 4.67 4.66 4 5.49 4C5.6 4 5.7 4.01 5.8 4.03L6.99 4.2V2.99C6.99 2.44 7.44 1.99 7.99 1.99C8.54 1.99 8.99 2.44 8.99 2.99V16.49C8.99 17.32 8.32 17.99 7.49 17.99L7.5 18ZM17.07 11.69L16.29 12.2L16.75 13.02C16.92 13.32 17 13.65 17 14C17 15.1 16.1 16 14.95 16H14.13L13.97 16.8C13.83 17.49 13.21 18 12.5 18C11.67 18 11 17.33 11 16.5V3C11 2.45 11.45 2 12 2C12.55 2 13 2.45 13 3.05V4.26L14.19 4.04C14.29 4.02 14.4 4.01 14.5 4.01C14.7806 4.01012 15.0556 4.08906 15.2935 4.23784C15.5315 4.38661 15.7228 4.59922 15.8458 4.85146C15.9688 5.1037 16.0185 5.38541 15.9892 5.6645C15.9598 5.94359 15.8527 6.20883 15.68 6.43L14.62 7.78L16.31 8.04C17.27 8.19 17.99 9.04 17.99 10.01C17.99 10.69 17.64 11.33 17.06 11.7L17.07 11.69Z" fill="#FF8E48"/>
</svg>
