<?xml version="1.0" encoding="UTF-8"?> <svg xmlns="http://www.w3.org/2000/svg" width="186" height="47" viewBox="0 0 186 47" fill="none"><g clip-path="url(#clip0_209_3210)"><path d="M52.3805 45.281V40.0921H54.2069C54.5743 40.0921 54.8746 40.1486 55.1148 40.265C55.3551 40.3815 55.5352 40.5404 55.6518 40.738C55.7684 40.9357 55.8285 41.1616 55.8285 41.4087C55.8285 41.744 55.7366 42.0088 55.5564 42.2029C55.3763 42.3971 55.1608 42.5277 54.9064 42.6018C55.1007 42.6371 55.2738 42.7112 55.4328 42.8312C55.5918 42.9513 55.7154 43.0995 55.8073 43.276C55.8991 43.4525 55.945 43.6502 55.945 43.862C55.945 44.1232 55.8815 44.3632 55.7507 44.5785C55.6236 44.7938 55.4328 44.9633 55.1784 45.0904C54.9276 45.2174 54.6203 45.281 54.2599 45.281H52.377H52.3805ZM53.0058 42.3582H54.1645C54.4966 42.3582 54.751 42.2806 54.9276 42.1253C55.1042 41.97 55.1961 41.7546 55.1961 41.4758C55.1961 41.2146 55.1078 41.0028 54.9311 40.8439C54.7545 40.6851 54.4931 40.6074 54.1398 40.6074H53.0058V42.3582ZM53.0058 44.7621H54.1999C54.5567 44.7621 54.8322 44.6809 55.023 44.515C55.2173 44.3491 55.3127 44.1196 55.3127 43.8231C55.3127 43.5266 55.2102 43.2972 55.0089 43.1242C54.8075 42.9477 54.5319 42.8595 54.1857 42.8595H53.0058V44.7656V44.7621Z" fill="#2E3536"></path><path d="M57.2656 46.9118L58.1771 44.9245H57.9616L56.499 41.6029H57.1738L58.3891 44.4656L59.6785 41.6029H60.325L57.9157 46.9118H57.2621H57.2656Z" fill="#2E3536"></path><path d="M62.7422 45.281L64.6569 40.0921H65.3176L67.2253 45.281H66.5646L66.0912 43.9467H63.8797L63.3993 45.281H62.7457H62.7422ZM64.0599 43.4419H65.9005L64.982 40.8757L64.0634 43.4419H64.0599Z" fill="#2E3536"></path><path d="M68.2992 40.7875C68.1755 40.7875 68.0731 40.7451 67.9918 40.6639C67.9106 40.5827 67.8682 40.4804 67.8682 40.3568C67.8682 40.2333 67.9106 40.138 67.9918 40.0603C68.0731 39.9826 68.1755 39.9403 68.2992 39.9403C68.4228 39.9403 68.5182 39.9791 68.603 40.0603C68.6878 40.138 68.7302 40.2368 68.7302 40.3568C68.7302 40.4768 68.6878 40.5827 68.603 40.6639C68.5182 40.7451 68.4193 40.7875 68.2992 40.7875ZM67.9883 45.281V41.6029H68.61V45.281H67.9883Z" fill="#2E3536"></path><path d="M71.7715 45.281V40.0921H72.3932V42.383H75.0852V40.0921H75.707V45.281H75.0852V42.8948H72.3932V45.281H71.7715Z" fill="#2E3536"></path><path d="M78.4764 45.3692C78.1266 45.3692 77.8122 45.288 77.5402 45.1292C77.2682 44.9703 77.0527 44.7444 76.8972 44.4585C76.7418 44.1726 76.6641 43.8337 76.6641 43.4419C76.6641 43.0501 76.7418 42.7183 76.8937 42.4288C77.0456 42.1394 77.2611 41.9135 77.5367 41.7546C77.8122 41.5958 78.1302 41.5146 78.4905 41.5146C78.8508 41.5146 79.1547 41.5958 79.4126 41.7546C79.674 41.917 79.8718 42.1253 80.0096 42.39C80.1474 42.6512 80.218 42.9336 80.218 43.2337C80.218 43.2866 80.218 43.3431 80.218 43.396C80.218 43.449 80.2145 43.5125 80.2145 43.5796H77.2858C77.3 43.862 77.3671 44.0949 77.4837 44.2785C77.6002 44.462 77.7451 44.6032 77.9217 44.6985C78.0984 44.7938 78.2856 44.8397 78.4834 44.8397C78.7413 44.8397 78.9568 44.7797 79.1299 44.6632C79.303 44.5432 79.4302 44.3844 79.5079 44.1832H80.1226C80.0237 44.5256 79.833 44.808 79.5539 45.0303C79.2748 45.2563 78.918 45.3692 78.4834 45.3692H78.4764ZM78.4764 42.0406C78.1796 42.0406 77.9147 42.1323 77.685 42.3124C77.4554 42.4924 77.3212 42.7571 77.2894 43.103H79.6033C79.5892 42.7712 79.4761 42.5136 79.2606 42.3229C79.0487 42.1359 78.7873 42.0406 78.4728 42.0406H78.4764Z" fill="#2E3536"></path><path d="M82.2816 45.3692C81.9743 45.3692 81.7199 45.3163 81.5185 45.2139C81.3172 45.1115 81.1653 44.9703 81.0663 44.7974C80.9674 44.6244 80.918 44.4373 80.918 44.2326C80.918 43.8584 81.0628 43.569 81.349 43.3643C81.6351 43.1631 82.0273 43.0607 82.5218 43.0607H83.5145V43.0148C83.5145 42.6936 83.4298 42.45 83.2637 42.2841C83.0942 42.1182 82.8716 42.037 82.589 42.037C82.3452 42.037 82.1368 42.097 81.9637 42.2171C81.787 42.3371 81.6775 42.5136 81.6351 42.7465H80.9957C81.0204 42.4783 81.1123 42.2559 81.2677 42.0723C81.4232 41.8888 81.6175 41.7511 81.8506 41.6523C82.0838 41.5534 82.3311 41.5076 82.5925 41.5076C83.1083 41.5076 83.4934 41.6452 83.7548 41.9205C84.0127 42.1959 84.1434 42.5595 84.1434 43.0148V45.2774H83.5852L83.5463 44.6174C83.4439 44.8256 83.292 45.0021 83.0906 45.1468C82.8892 45.2916 82.6208 45.3657 82.2851 45.3657L82.2816 45.3692ZM82.377 44.8433C82.6137 44.8433 82.8186 44.7797 82.9882 44.6562C83.1577 44.5326 83.2885 44.3738 83.3768 44.1761C83.4651 43.9785 83.511 43.7702 83.511 43.5549V43.5478H82.5678C82.2004 43.5478 81.9425 43.6113 81.7941 43.7384C81.6422 43.8655 81.568 44.0208 81.568 44.2079C81.568 44.395 81.6387 44.5538 81.78 44.6703C81.9213 44.7868 82.1191 44.8433 82.377 44.8433Z" fill="#2E3536"></path><path d="M85.1504 45.281V39.9438H85.7722V45.281H85.1504Z" fill="#2E3536"></path><path d="M88.2484 45.281C87.9128 45.281 87.6478 45.1998 87.4535 45.0374C87.2592 44.875 87.1638 44.5821 87.1638 44.1549V42.1323H86.5244V41.6064H87.1638L87.2451 40.7239H87.7856V41.6064H88.8702V42.1323H87.7856V44.1549C87.7856 44.3879 87.8315 44.5432 87.9269 44.6244C88.0223 44.7056 88.1883 44.748 88.425 44.748H88.8101V45.281H88.2449H88.2484Z" fill="#2E3536"></path><path d="M89.6367 45.281V39.9438H90.2585V42.2347C90.3821 42.0088 90.5588 41.8323 90.7849 41.7052C91.011 41.5781 91.2583 41.5146 91.5267 41.5146C91.9507 41.5146 92.2934 41.6452 92.5513 41.91C92.8091 42.1747 92.9363 42.5806 92.9363 43.1278V45.2774H92.3216V43.1948C92.3216 42.4288 92.0107 42.0476 91.396 42.0476C91.0746 42.0476 90.8061 42.1641 90.587 42.3935C90.368 42.623 90.262 42.9513 90.262 43.3748V45.281H89.6403H89.6367Z" fill="#2E3536"></path><path d="M98.2353 45.3692C97.7265 45.3692 97.2885 45.2562 96.9175 45.0303C96.5501 44.8044 96.264 44.4903 96.0626 44.0879C95.8612 43.6855 95.7588 43.216 95.7588 42.683C95.7588 42.15 95.8612 41.6876 96.0626 41.2852C96.264 40.8828 96.5501 40.5686 96.9175 40.3392C97.2849 40.1133 97.7265 39.9968 98.2353 39.9968C98.8288 39.9968 99.3127 40.138 99.6872 40.4239C100.062 40.7098 100.298 41.1051 100.404 41.6134H99.7155C99.6378 41.2922 99.4753 41.0345 99.228 40.8404C98.9842 40.6463 98.6521 40.5474 98.2388 40.5474C97.8678 40.5474 97.5428 40.6321 97.2673 40.8016C96.9917 40.971 96.7762 41.2181 96.6243 41.5358C96.4724 41.8535 96.3982 42.2347 96.3982 42.6795C96.3982 43.1242 96.4724 43.5054 96.6243 43.8231C96.7762 44.1408 96.9882 44.3879 97.2673 44.5573C97.5428 44.7268 97.8678 44.8115 98.2388 44.8115C98.6557 44.8115 98.9842 44.7162 99.228 44.5256C99.4717 44.335 99.6342 44.0808 99.7155 43.7666H100.404C100.302 44.2644 100.062 44.6562 99.6872 44.9386C99.3127 45.2209 98.8323 45.3621 98.2353 45.3621V45.3692Z" fill="#2E3536"></path><path d="M102.952 45.3692C102.605 45.3692 102.295 45.2916 102.015 45.1327C101.74 44.9739 101.521 44.7515 101.358 44.462C101.196 44.1726 101.118 43.8337 101.118 43.4419C101.118 43.0501 101.199 42.7112 101.362 42.4218C101.524 42.1323 101.747 41.91 102.026 41.7511C102.305 41.5923 102.62 41.5146 102.966 41.5146C103.312 41.5146 103.623 41.5923 103.902 41.7511C104.178 41.91 104.397 42.1323 104.559 42.4218C104.718 42.7112 104.799 43.0501 104.799 43.4419C104.799 43.8337 104.718 44.1726 104.556 44.462C104.393 44.7515 104.17 44.9739 103.891 45.1327C103.612 45.2916 103.298 45.3692 102.952 45.3692ZM102.952 44.8362C103.164 44.8362 103.361 44.7833 103.545 44.6809C103.729 44.5785 103.877 44.4232 103.99 44.2149C104.103 44.0067 104.16 43.749 104.16 43.4454C104.16 43.1419 104.103 42.8807 103.994 42.6759C103.884 42.4677 103.736 42.3124 103.552 42.21C103.369 42.1076 103.174 42.0547 102.966 42.0547C102.757 42.0547 102.556 42.1076 102.372 42.21C102.189 42.3124 102.04 42.4712 101.927 42.6759C101.814 42.8842 101.758 43.1419 101.758 43.4454C101.758 43.749 101.814 44.0102 101.927 44.2149C102.04 44.4232 102.189 44.5785 102.369 44.6809C102.549 44.7833 102.743 44.8362 102.952 44.8362Z" fill="#2E3536"></path><path d="M106.88 45.3692C106.573 45.3692 106.319 45.3163 106.117 45.2139C105.916 45.1115 105.764 44.9703 105.665 44.7974C105.566 44.6244 105.517 44.4373 105.517 44.2326C105.517 43.8584 105.661 43.569 105.948 43.3643C106.234 43.1631 106.626 43.0607 107.12 43.0607H108.113V43.0148C108.113 42.6936 108.028 42.45 107.862 42.2841C107.693 42.1182 107.47 42.037 107.188 42.037C106.944 42.037 106.735 42.097 106.562 42.2171C106.386 42.3371 106.276 42.5136 106.234 42.7465H105.594C105.619 42.4783 105.711 42.2559 105.866 42.0723C106.022 41.8888 106.216 41.7511 106.449 41.6523C106.682 41.5534 106.93 41.5076 107.191 41.5076C107.707 41.5076 108.092 41.6452 108.353 41.9205C108.615 42.1959 108.742 42.5595 108.742 43.0148V45.2774H108.184L108.149 44.6174C108.046 44.8256 107.894 45.0021 107.693 45.1468C107.491 45.2916 107.223 45.3657 106.887 45.3657L106.88 45.3692ZM106.976 44.8433C107.212 44.8433 107.417 44.7797 107.587 44.6562C107.756 44.5326 107.887 44.3738 107.975 44.1761C108.064 43.9785 108.11 43.7702 108.11 43.5549V43.5478H107.166C106.799 43.5478 106.541 43.6113 106.393 43.7384C106.241 43.8655 106.167 44.0208 106.167 44.2079C106.167 44.395 106.237 44.5538 106.379 44.6703C106.52 44.7868 106.718 44.8433 106.976 44.8433Z" fill="#2E3536"></path><path d="M111.416 45.3692C111.066 45.3692 110.748 45.288 110.469 45.1292C110.19 44.9703 109.971 44.7444 109.809 44.455C109.646 44.1655 109.568 43.8302 109.568 43.4419C109.568 43.0536 109.65 42.7183 109.809 42.4288C109.971 42.1394 110.19 41.9135 110.469 41.7546C110.748 41.5958 111.063 41.5146 111.416 41.5146C111.851 41.5146 112.218 41.6276 112.518 41.857C112.819 42.0829 113.006 42.39 113.087 42.7677H112.448C112.398 42.5418 112.278 42.3653 112.084 42.2382C111.889 42.1112 111.667 42.0476 111.409 42.0476C111.2 42.0476 111.006 42.1006 110.822 42.2029C110.639 42.3053 110.49 42.4641 110.377 42.6689C110.264 42.8771 110.208 43.1348 110.208 43.4384C110.208 43.7419 110.264 44.0032 110.377 44.2079C110.49 44.4161 110.639 44.5715 110.822 44.6774C111.006 44.7833 111.2 44.8362 111.409 44.8362C111.667 44.8362 111.893 44.7727 112.084 44.6456C112.278 44.5185 112.398 44.342 112.448 44.1091H113.087C113.013 44.4797 112.826 44.7797 112.522 45.0127C112.221 45.2457 111.851 45.3621 111.416 45.3621V45.3692Z" fill="#2E3536"></path><path d="M113.964 45.281V39.9438H114.586V42.2347C114.709 42.0088 114.886 41.8323 115.112 41.7052C115.338 41.5781 115.585 41.5146 115.854 41.5146C116.278 41.5146 116.621 41.6452 116.878 41.91C117.136 42.1747 117.263 42.5806 117.263 43.1278V45.2774H116.649V43.1948C116.649 42.4288 116.338 42.0476 115.723 42.0476C115.402 42.0476 115.133 42.1641 114.914 42.3935C114.695 42.623 114.589 42.9513 114.589 43.3748V45.281H113.967H113.964Z" fill="#2E3536"></path><path d="M118.606 40.7875C118.482 40.7875 118.38 40.7451 118.298 40.6639C118.217 40.5827 118.175 40.4804 118.175 40.3568C118.175 40.2333 118.217 40.138 118.298 40.0603C118.38 39.9826 118.482 39.9403 118.606 39.9403C118.729 39.9403 118.825 39.9791 118.91 40.0603C118.994 40.138 119.037 40.2368 119.037 40.3568C119.037 40.4768 118.994 40.5827 118.91 40.6639C118.825 40.7451 118.726 40.7875 118.606 40.7875ZM118.295 45.281V41.6029H118.917V45.281H118.295Z" fill="#2E3536"></path><path d="M120.015 45.281V41.6029H120.58L120.615 42.2629C120.735 42.03 120.905 41.8464 121.127 41.7158C121.35 41.5852 121.601 41.5146 121.883 41.5146C122.318 41.5146 122.664 41.6452 122.926 41.91C123.184 42.1747 123.314 42.5806 123.314 43.1278V45.2774H122.692V43.1948C122.692 42.4288 122.375 42.0476 121.742 42.0476C121.424 42.0476 121.163 42.1641 120.951 42.3935C120.739 42.623 120.636 42.9513 120.636 43.3748V45.281H120.015Z" fill="#2E3536"></path><path d="M125.745 44.1232C125.537 44.1232 125.346 44.0949 125.173 44.042L124.802 44.3914C124.855 44.4303 124.926 44.4656 125.007 44.4903C125.088 44.5185 125.205 44.5432 125.36 44.5644C125.516 44.5856 125.728 44.6103 126.007 44.635C126.501 44.6703 126.855 44.7833 127.067 44.9774C127.279 45.1715 127.384 45.4222 127.384 45.7328C127.384 45.9446 127.324 46.1493 127.211 46.3399C127.098 46.5305 126.918 46.6894 126.678 46.8129C126.438 46.9365 126.13 46.9965 125.756 46.9965C125.424 46.9965 125.131 46.9541 124.873 46.8659C124.615 46.7776 124.417 46.647 124.272 46.4741C124.127 46.2976 124.057 46.0787 124.057 45.8104C124.057 45.6728 124.096 45.521 124.17 45.3622C124.244 45.2033 124.382 45.048 124.587 44.9068C124.477 44.8609 124.385 44.815 124.307 44.7621C124.23 44.7091 124.159 44.6527 124.095 44.5891V44.4197L124.728 43.7984C124.435 43.5513 124.29 43.2266 124.29 42.8207C124.29 42.5771 124.346 42.3582 124.459 42.1606C124.572 41.9629 124.738 41.8076 124.957 41.6911C125.177 41.5746 125.441 41.5181 125.752 41.5181C125.964 41.5181 126.159 41.5464 126.332 41.6064H127.688V42.0723L126.999 42.1006C127.144 42.3088 127.215 42.5489 127.215 42.8207C127.215 43.0642 127.155 43.2831 127.042 43.4807C126.925 43.6784 126.759 43.8337 126.544 43.9502C126.328 44.0667 126.067 44.1232 125.752 44.1232H125.745ZM124.661 45.754C124.661 46.0011 124.763 46.1846 124.972 46.3046C125.18 46.4246 125.438 46.4846 125.752 46.4846C126.067 46.4846 126.303 46.4176 126.491 46.2834C126.678 46.1493 126.77 45.9728 126.77 45.7504C126.77 45.5916 126.706 45.4539 126.576 45.3374C126.448 45.221 126.208 45.1539 125.862 45.1327C125.59 45.1115 125.357 45.0868 125.155 45.0586C124.954 45.168 124.82 45.2845 124.756 45.4116C124.693 45.5386 124.661 45.6516 124.661 45.7504V45.754ZM125.745 43.6113C126.007 43.6113 126.215 43.5443 126.371 43.4066C126.526 43.2689 126.604 43.0748 126.604 42.8171C126.604 42.5594 126.526 42.3724 126.371 42.2347C126.215 42.1006 126.007 42.03 125.745 42.03C125.484 42.03 125.268 42.097 125.113 42.2347C124.957 42.3724 124.88 42.563 124.88 42.8171C124.88 43.0713 124.957 43.2689 125.113 43.4066C125.268 43.5443 125.48 43.6113 125.745 43.6113Z" fill="#2E3536"></path><path d="M21.2884 41.4581C11.9725 41.4581 4.41949 33.9113 4.41949 24.6031C4.41949 15.2949 11.9725 7.74803 21.2884 7.74803C22.8923 7.74803 24.4397 7.97747 25.9058 8.39399V4.35937C25.9058 1.95201 23.9521 0 21.5428 0H4.36296C1.95362 0 0 1.95201 0 4.35937V42.5489C0 44.9562 1.95362 46.9082 4.36296 46.9082H21.5428C23.9521 46.9082 25.9058 44.9562 25.9058 42.5489V40.8122C24.4361 41.2287 22.8888 41.4581 21.2884 41.4581Z" fill="#2E3536"></path><path d="M25.9053 40.8157C32.9743 38.8072 38.1569 32.3123 38.1569 24.6066C38.1569 16.9009 32.9779 10.4025 25.9053 8.39752V40.8192V40.8157Z" fill="#2E3536"></path><path d="M54.5916 33.3677C53.2315 32.5347 52.1964 31.3981 51.4792 29.9579C50.7621 28.5177 50.4053 26.901 50.4053 25.1008C50.4053 22.9546 50.8539 21.1121 51.7548 19.5695C52.6556 18.0305 53.8744 16.8586 55.4183 16.0608C56.9586 15.2631 58.6755 14.8642 60.5655 14.8642C61.5017 14.8642 62.4343 14.956 63.3599 15.1395C64.2855 15.3231 65.1616 15.5984 65.9883 15.9655V20.9709H64.8861C64.72 19.3577 64.2608 18.1929 63.5083 17.4763C62.7558 16.7597 61.6925 16.4032 60.3147 16.4032C58.9369 16.4032 57.7711 16.7209 56.7607 17.3528C55.7503 17.9846 54.9696 18.913 54.422 20.1308C53.8709 21.3521 53.5954 22.8311 53.5954 24.5748C53.5954 27.3246 54.2101 29.379 55.4395 30.738C56.6689 32.097 58.2833 32.7747 60.2864 32.7747C61.5158 32.7747 62.5898 32.5417 63.5083 32.0723C64.4268 31.6063 65.1687 31.0027 65.7375 30.272L66.5359 31.0133C65.8929 32.0581 64.9744 32.9194 63.7839 33.6007C62.5898 34.2784 61.1484 34.6173 59.4597 34.6173C57.5697 34.6173 55.9446 34.2008 54.5845 33.3642L54.5916 33.3677Z" fill="#2E3536"></path><path d="M67.9524 34.2608V33.3818C68.3552 33.3818 68.765 33.29 69.1783 33.1065C69.5916 32.9229 69.7965 32.5382 69.7965 31.9522V17.9211C69.7965 17.2786 69.6305 16.8198 69.3019 16.5444C68.9699 16.2691 68.447 16.1314 67.7334 16.1314V15.2525L71.5064 14.1794H72.4143V23.2864H72.6086C73.0502 22.4993 73.6331 21.8604 74.3573 21.3733C75.0815 20.8861 75.94 20.6461 76.9327 20.6461C78.1621 20.6461 79.1407 21.0132 79.8649 21.7474C80.5891 22.4816 80.953 23.4982 80.953 24.8008V31.9522C80.953 32.5382 81.1579 32.9229 81.5712 33.1065C81.9846 33.29 82.3908 33.3818 82.7971 33.3818V34.2608H76.4629V33.3818C76.8833 33.3818 77.3037 33.29 77.717 33.1065C78.1303 32.9229 78.3352 32.5382 78.3352 31.9522V25.5138C78.3352 23.5865 77.5545 22.6264 75.9965 22.6264C75.2617 22.6264 74.5799 22.824 73.944 23.2194C73.3116 23.6147 72.8029 24.1971 72.4143 24.9667V31.9558C72.4143 32.5417 72.6192 32.9265 73.0325 33.11C73.4459 33.2936 73.8627 33.3854 74.2867 33.3854V34.2643H67.9524V34.2608Z" fill="#2E3536"></path><path d="M83.7441 34.2608V33.3818C84.1645 33.3818 84.5849 33.2901 84.9983 33.1065C85.4116 32.9229 85.6165 32.5382 85.6165 31.9522V24.716C85.6165 24.0207 85.4787 23.5441 85.2032 23.2864C84.9276 23.0288 84.4401 22.9017 83.7441 22.9017V21.9945L87.2416 20.6744L88.0682 23.9465H88.206C88.5734 23.0288 89.0503 22.2487 89.6368 21.6098C90.2232 20.9673 90.958 20.6461 91.8377 20.6461C92.1486 20.6461 92.4347 20.6814 92.6926 20.7555C92.9505 20.8297 93.1342 20.9109 93.2437 21.0026V24.6631H92.4171C92.3606 24.243 92.2157 23.9112 91.9755 23.6712C91.7353 23.4312 91.3961 23.3147 90.958 23.3147C90.573 23.3147 90.1738 23.4841 89.7604 23.823C89.3471 24.1619 88.9974 24.589 88.7147 25.1008C88.4286 25.6162 88.2696 26.128 88.2343 26.6398V31.9487C88.2343 32.5347 88.4957 32.9194 89.0186 33.103C89.5414 33.2865 90.0678 33.3783 90.6012 33.3783V34.2572H83.7441V34.2608Z" fill="#2E3536"></path><path d="M96.9918 33.7242C96.0097 33.1277 95.2466 32.3088 94.7061 31.2604C94.1656 30.2155 93.8936 29.033 93.8936 27.7129C93.8936 26.3927 94.1656 25.1361 94.7061 24.0524C95.2466 22.9688 96.0097 22.1322 96.9918 21.5356C97.9739 20.9391 99.0902 20.6426 100.337 20.6426C101.584 20.6426 102.701 20.9356 103.683 21.5215C104.665 22.1075 105.432 22.9299 105.983 23.9854C106.534 25.0408 106.809 26.2551 106.809 27.6317C106.809 29.0083 106.544 30.1661 106.011 31.2216C105.477 32.277 104.725 33.1065 103.753 33.7101C102.782 34.3137 101.652 34.6173 100.366 34.6173C99.0797 34.6173 97.9739 34.3172 96.9918 33.7242ZM103.132 31.8816C103.746 30.9921 104.054 29.7496 104.054 28.1541C104.054 26.3927 103.711 24.9349 103.022 23.7806C102.333 22.6264 101.376 22.0475 100.143 22.0475C99.0973 22.0475 98.2565 22.4958 97.6242 23.3959C96.9918 24.296 96.6738 25.5597 96.6738 27.194C96.6738 28.313 96.8293 29.326 97.1402 30.2332C97.451 31.1404 97.9103 31.8675 98.5179 32.4076C99.122 32.9477 99.8392 33.2195 100.666 33.2195C101.694 33.2195 102.513 32.7747 103.132 31.8852V31.8816Z" fill="#2E3536"></path><path d="M107.513 34.2608V33.3818C107.933 33.3818 108.354 33.29 108.767 33.1065C109.18 32.9229 109.385 32.5382 109.385 31.9522V24.716C109.385 24.0207 109.248 23.5441 108.972 23.2864C108.696 23.0288 108.209 22.9017 107.513 22.9017V21.9945L110.926 20.6744L111.833 23.3429H112C112.459 22.5169 113.063 21.8604 113.815 21.3768C114.568 20.8897 115.458 20.6496 116.486 20.6496C117.733 20.6496 118.719 21.0167 119.447 21.751C120.171 22.4852 120.535 23.5018 120.535 24.8043V31.9558C120.535 32.5417 120.74 32.9265 121.153 33.11C121.566 33.2936 121.973 33.3854 122.379 33.3854V34.2643H116.045V33.3854C116.465 33.3854 116.878 33.2936 117.285 33.11C117.687 32.9265 117.889 32.5417 117.889 31.9558V25.5173C117.889 23.59 117.108 22.6299 115.55 22.6299C114.815 22.6299 114.133 22.8276 113.497 23.2229C112.865 23.6183 112.363 24.2007 111.996 24.9702V31.9593C111.996 32.5453 112.201 32.93 112.614 33.1136C113.028 33.2971 113.434 33.3889 113.84 33.3889V34.2678H107.506L107.513 34.2608Z" fill="#2E3536"></path><path d="M123.622 34.2608V33.3818C124.025 33.3818 124.435 33.2901 124.848 33.1065C125.261 32.9229 125.466 32.5382 125.466 31.9522V24.716C125.466 24.2572 125.417 23.9042 125.314 23.6571C125.212 23.41 125.028 23.2406 124.763 23.1488C124.498 23.057 124.117 23.0111 123.622 23.0111V22.1322L127.091 21.0309H128.084V31.9522C128.084 32.5382 128.289 32.9229 128.702 33.1065C129.116 33.2901 129.532 33.3818 129.956 33.3818V34.2608H123.622ZM125.3 17.7128C124.95 17.3739 124.777 16.9468 124.777 16.435C124.777 15.9232 124.95 15.5278 125.3 15.196C125.65 14.8642 126.07 14.7018 126.568 14.7018C127.067 14.7018 127.487 14.8677 127.833 15.196C128.183 15.5243 128.356 15.9373 128.356 16.435C128.356 16.9327 128.183 17.3739 127.833 17.7128C127.483 18.0517 127.063 18.2211 126.568 18.2211C126.074 18.2211 125.65 18.0517 125.3 17.7128Z" fill="#2E3536"></path><path d="M131.189 34.2608V33.3818C131.613 33.3818 132.03 33.29 132.443 33.1065C132.857 32.9229 133.061 32.5382 133.061 31.9522V17.9211C133.061 17.4092 133.005 17.0315 132.895 16.7915C132.786 16.555 132.602 16.3926 132.344 16.3115C132.086 16.2303 131.701 16.1879 131.189 16.1879V15.309L134.74 14.1794H135.676V31.9522C135.676 32.5382 135.881 32.9229 136.294 33.1065C136.707 33.29 137.114 33.3818 137.52 33.3818V34.2608H131.186H131.189Z" fill="#2E3536"></path><path d="M141.215 33.7242C140.233 33.1277 139.47 32.3088 138.93 31.2604C138.389 30.2155 138.117 29.033 138.117 27.7129C138.117 26.3927 138.389 25.1361 138.93 24.0524C139.47 22.9688 140.233 22.1322 141.215 21.5356C142.198 20.9391 143.314 20.6426 144.561 20.6426C145.808 20.6426 146.924 20.9356 147.906 21.5215C148.889 22.1075 149.655 22.9299 150.206 23.9854C150.757 25.0408 151.033 26.2551 151.033 27.6317C151.033 29.0083 150.768 30.1661 150.235 31.2216C149.701 32.277 148.949 33.1065 147.977 33.7101C147.006 34.3137 145.875 34.6173 144.589 34.6173C143.303 34.6173 142.198 34.3172 141.215 33.7242ZM147.355 31.8816C147.97 30.9921 148.277 29.7496 148.277 28.1541C148.277 26.3927 147.935 24.9349 147.246 23.7806C146.557 22.6264 145.6 22.0475 144.367 22.0475C143.321 22.0475 142.48 22.4958 141.848 23.3959C141.215 24.296 140.897 25.5597 140.897 27.194C140.897 28.313 141.053 29.326 141.364 30.2332C141.675 31.1404 142.134 31.8675 142.742 32.4076C143.346 32.9477 144.063 33.2195 144.89 33.2195C145.918 33.2195 146.737 32.7747 147.355 31.8852V31.8816Z" fill="#2E3536"></path><path d="M154.573 39.8591C153.757 39.5555 153.114 39.1249 152.647 38.5672C152.181 38.0095 151.944 37.3529 151.944 36.6011C151.944 35.7574 152.248 35.0197 152.852 34.3878C153.456 33.756 154.311 33.2195 155.414 32.7782L155.88 33.4101C155.219 33.7595 154.725 34.1407 154.393 34.5502C154.064 34.9632 153.898 35.4362 153.898 35.9657C153.898 36.8093 154.265 37.487 155 38.0024C155.735 38.5142 156.661 38.7719 157.78 38.7719C159.045 38.7719 160.006 38.5601 160.656 38.1401C161.306 37.7165 161.635 37.1482 161.635 36.4352C161.635 35.9939 161.493 35.6339 161.207 35.348C160.921 35.062 160.518 34.8397 159.996 34.6738C159.473 34.5079 158.706 34.3172 157.696 34.0949C156.484 33.8195 155.544 33.5724 154.873 33.3536C154.202 33.1347 153.693 32.8665 153.343 32.5558C152.994 32.2452 152.82 31.8322 152.82 31.3169C152.82 30.6391 153.078 30.092 153.591 29.679C154.103 29.266 154.746 28.913 155.516 28.6201L156.424 29.1425C155.855 29.3825 155.459 29.5978 155.24 29.7884C155.021 29.979 154.908 30.1979 154.908 30.4344C154.908 30.6356 155 30.8015 155.184 30.9286C155.368 31.0557 155.689 31.1792 156.148 31.2992C156.608 31.4192 157.378 31.5887 158.462 31.8075C159.766 32.0828 160.797 32.3899 161.561 32.7288C162.324 33.0677 162.871 33.4701 163.214 33.9395C163.553 34.4055 163.723 34.9879 163.723 35.6868C163.723 36.4952 163.461 37.2505 162.938 37.9565C162.415 38.6625 161.666 39.2308 160.695 39.6614C159.723 40.0921 158.604 40.3074 157.335 40.3074C156.307 40.3074 155.385 40.1556 154.569 39.852L154.573 39.8591ZM153.969 28.4012C153.022 27.5752 152.552 26.4951 152.552 25.1537C152.552 24.2572 152.778 23.4665 153.227 22.7887C153.675 22.111 154.287 21.5815 155.057 21.2074C155.827 20.8332 156.689 20.6426 157.646 20.6426C158.604 20.6426 159.494 20.8261 160.275 21.1932C161.055 21.5603 161.666 22.0828 162.105 22.7605C162.546 23.4382 162.765 24.2289 162.765 25.1255C162.765 26.4845 162.299 27.5752 161.363 28.3977C160.427 29.2237 159.197 29.6367 157.674 29.6367C156.152 29.6367 154.915 29.2237 153.972 28.3977L153.969 28.4012ZM159.628 27.7129C160.031 27.1622 160.232 26.421 160.232 25.4855C160.232 24.8078 160.126 24.183 159.914 23.6147C159.702 23.0464 159.391 22.5911 158.978 22.2522C158.565 21.9133 158.074 21.7439 157.505 21.7439C156.752 21.7439 156.159 22.0192 155.728 22.5699C155.297 23.1205 155.081 23.8618 155.081 24.7972C155.081 25.4573 155.191 26.0715 155.414 26.6398C155.633 27.2081 155.961 27.667 156.392 28.0164C156.823 28.3659 157.332 28.5389 157.922 28.5389C158.657 28.5389 159.225 28.2635 159.628 27.7129ZM161.059 19.8731C161.059 19.5977 161.009 19.3542 160.907 19.1459C160.805 18.9341 160.653 18.7647 160.451 18.6376V17.8681H162.903C162.977 17.9599 163.055 18.1187 163.136 18.3482C163.217 18.5776 163.26 18.8106 163.26 19.0506C163.26 19.7672 162.974 20.399 162.405 20.9497C161.836 21.5003 161.027 21.9416 159.981 22.2698L159.678 21.8569C160.596 21.3238 161.055 20.6638 161.055 19.8766L161.059 19.8731Z" fill="#2E3536"></path><path d="M164.938 34.2608V33.3818C165.34 33.3818 165.75 33.2901 166.163 33.1065C166.577 32.9229 166.782 32.5382 166.782 31.9522V24.716C166.782 24.2572 166.732 23.9042 166.63 23.6571C166.527 23.41 166.344 23.2406 166.079 23.1488C165.814 23.057 165.432 23.0111 164.938 23.0111V22.1322L168.407 21.0309H169.399V31.9522C169.399 32.5382 169.604 32.9229 170.018 33.1065C170.431 33.2901 170.848 33.3818 171.272 33.3818V34.2608H164.938ZM166.619 17.7128C166.269 17.3739 166.096 16.9468 166.096 16.435C166.096 15.9232 166.269 15.5278 166.619 15.196C166.969 14.8642 167.389 14.7018 167.887 14.7018C168.385 14.7018 168.806 14.8677 169.152 15.196C169.502 15.5243 169.675 15.9373 169.675 16.435C169.675 16.9327 169.502 17.3739 169.152 17.7128C168.802 18.0517 168.382 18.2211 167.887 18.2211C167.393 18.2211 166.969 18.0517 166.619 17.7128Z" fill="#2E3536"></path><path d="M173.53 33.0641C173.971 32.8523 174.374 32.4923 174.741 31.9769L178.154 27.494L179.009 28.4577L176.366 32.1711C176.126 32.5029 176.101 32.7853 176.285 33.0253C176.469 33.2653 176.79 33.3818 177.25 33.3818H177.553V34.2608H172.378V33.3818C172.71 33.3818 173.095 33.2759 173.533 33.0641H173.53ZM180.083 33.3818H180.387C180.92 33.3818 181.213 33.2759 181.266 33.0641C181.323 32.8523 181.22 32.5558 180.963 32.1711L174.381 22.9017C174.18 22.6087 173.908 22.3687 173.568 22.1851C173.229 22.0016 172.922 21.9098 172.646 21.9098V21.0309H178.458V21.9098C177.854 21.9098 177.486 22.0616 177.356 22.3652C177.228 22.6687 177.384 23.1135 177.822 23.6994L183.411 31.5675C183.813 32.1181 184.244 32.5594 184.704 32.8876C185.163 33.2195 185.594 33.3818 185.997 33.3818V34.2608H180.076V33.3818H180.083ZM178.705 27.4658L181.514 23.6959C181.938 23.1276 182.082 22.6864 181.955 22.3757C181.828 22.0651 181.468 21.9098 180.881 21.9098V21.0309H185.643V21.9098C185.276 21.9098 184.919 21.998 184.569 22.171C184.22 22.344 183.927 22.5805 183.69 22.8735L179.641 28.1824L178.705 27.4658Z" fill="#2E3536"></path><path d="M31.8089 6.562C30.5512 6.562 29.5303 5.53834 29.5303 4.28524C29.5303 3.03215 30.5548 2.00849 31.8089 2.00849C33.063 2.00849 34.0875 3.03215 34.0875 4.28524C34.0875 5.53834 33.063 6.562 31.8089 6.562ZM31.8089 2.46384C30.8056 2.46384 29.986 3.27924 29.986 4.28524C29.986 5.29125 30.8021 6.10665 31.8089 6.10665C32.8157 6.10665 33.6318 5.29125 33.6318 4.28524C33.6318 3.27924 32.8157 2.46384 31.8089 2.46384Z" fill="#2E3536"></path><path d="M31.809 4.99474C31.4169 4.99474 31.0954 4.67706 31.0954 4.28171C31.0954 3.88637 31.4133 3.56868 31.809 3.56868C31.9256 3.56868 32.0316 3.60045 32.1305 3.64987V3.15569C32.028 3.12745 31.922 3.1098 31.809 3.1098C31.1625 3.1098 30.6396 3.63222 30.6396 4.27818C30.6396 4.92415 31.1625 5.44657 31.809 5.44657C31.9185 5.44657 32.028 5.43245 32.1305 5.40068V4.9065C32.0351 4.95592 31.9256 4.98768 31.809 4.98768V4.99474Z" fill="#2E3536"></path></g><defs><clipPath id="clip0_209_3210"><rect width="186" height="47" fill="white"></rect></clipPath></defs></svg> 