<?xml version="1.0" encoding="UTF-8"?>
<svg id="uuid-bf5cf172-b456-4457-b19b-ac2e842ee84a" data-name="Layer 1" xmlns="http://www.w3.org/2000/svg" viewBox="0 0 495.6 125.58">
  <defs>
    <style>
      .uuid-771fc1c4-2537-4a75-b8fe-be64b92ed7d1 {
        fill: #fff;
      }
    </style>
  </defs>
  <g>
    <g>
      <path class="uuid-771fc1c4-2537-4a75-b8fe-be64b92ed7d1" d="M139.57,120.87v-13.84h4.86c.97,0,1.78.15,2.42.46.64.31,1.12.73,1.43,1.27s.47,1.13.47,1.79c0,.9-.24,1.6-.72,2.12-.48.51-1.06.87-1.73,1.07.51.09.98.3,1.4.61.42.32.75.71,1,1.19.24.47.37,1,.37,1.56,0,.7-.17,1.33-.51,1.91-.34.57-.85,1.03-1.52,1.36-.67.34-1.49.5-2.45.5h-5.02ZM141.23,113.08h3.08c.88,0,1.56-.21,2.04-.62.48-.42.71-.99.71-1.73,0-.7-.23-1.26-.7-1.68-.47-.42-1.17-.63-2.11-.63h-3.02v4.66ZM141.23,119.49h3.18c.95,0,1.68-.22,2.19-.66.51-.44.77-1.06.77-1.85s-.27-1.4-.81-1.87c-.54-.47-1.27-.7-2.19-.7h-3.14v5.08Z"/>
      <path class="uuid-771fc1c4-2537-4a75-b8fe-be64b92ed7d1" d="M152.58,125.22l2.43-5.3h-.57l-3.89-8.86h1.8l3.24,7.63,3.44-7.63h1.72l-6.42,14.15h-1.74Z"/>
      <path class="uuid-771fc1c4-2537-4a75-b8fe-be64b92ed7d1" d="M167.17,120.87l5.1-13.84h1.76l5.08,13.84h-1.76l-1.26-3.56h-5.89l-1.28,3.56h-1.74ZM170.69,115.97h4.9l-2.45-6.84-2.45,6.84Z"/>
      <path class="uuid-771fc1c4-2537-4a75-b8fe-be64b92ed7d1" d="M181.98,108.89c-.33,0-.6-.11-.82-.33-.22-.22-.33-.49-.33-.82s.11-.58.33-.79c.22-.21.49-.32.82-.32s.59.11.81.32c.22.21.34.47.34.79s-.11.6-.34.82-.49.33-.81.33ZM181.15,120.87v-9.8h1.66v9.8h-1.66Z"/>
      <path class="uuid-771fc1c4-2537-4a75-b8fe-be64b92ed7d1" d="M191.23,120.87v-13.84h1.66v6.11h7.18v-6.11h1.66v13.84h-1.66v-6.37h-7.18v6.37h-1.66Z"/>
      <path class="uuid-771fc1c4-2537-4a75-b8fe-be64b92ed7d1" d="M209.1,121.11c-.94,0-1.77-.21-2.49-.64-.72-.43-1.29-1.02-1.71-1.79-.41-.76-.62-1.67-.62-2.71s.2-1.93.61-2.7c.41-.77.98-1.37,1.71-1.8.73-.43,1.58-.64,2.54-.64s1.77.21,2.46.64c.69.43,1.22.99,1.59,1.69.37.7.55,1.45.55,2.25,0,.15,0,.29,0,.44,0,.15-.01.31-.01.49h-7.81c.04.75.21,1.37.52,1.87.31.49.7.87,1.17,1.12s.97.38,1.49.38c.68,0,1.26-.16,1.72-.47.46-.32.8-.74,1.01-1.28h1.64c-.26.91-.77,1.66-1.51,2.26-.74.6-1.7.9-2.86.9ZM209.1,112.23c-.79,0-1.49.24-2.11.72-.61.48-.97,1.18-1.06,2.11h6.17c-.04-.88-.34-1.57-.91-2.08-.57-.5-1.26-.75-2.09-.75Z"/>
      <path class="uuid-771fc1c4-2537-4a75-b8fe-be64b92ed7d1" d="M219.24,121.11c-.82,0-1.5-.14-2.04-.42-.54-.28-.94-.65-1.21-1.11-.26-.46-.4-.96-.4-1.5,0-1,.38-1.77,1.15-2.31.76-.54,1.81-.81,3.12-.81h2.65v-.12c0-.86-.22-1.51-.67-1.95-.45-.44-1.05-.66-1.8-.66-.65,0-1.2.16-1.67.48-.47.32-.76.79-.88,1.41h-1.7c.07-.71.31-1.31.72-1.8.41-.49.93-.86,1.55-1.12s1.28-.39,1.98-.39c1.37,0,2.4.37,3.09,1.1.69.73,1.04,1.7,1.04,2.92v6.03h-1.48l-.1-1.76c-.28.55-.68,1.02-1.22,1.41-.53.39-1.25.58-2.14.58ZM219.49,119.7c.63,0,1.18-.16,1.63-.49.46-.33.8-.76,1.04-1.28.24-.53.36-1.08.36-1.66v-.02h-2.51c-.98,0-1.66.17-2.07.5-.4.34-.6.75-.6,1.26s.19.93.56,1.24c.38.31.91.46,1.59.46Z"/>
      <path class="uuid-771fc1c4-2537-4a75-b8fe-be64b92ed7d1" d="M226.89,120.87v-14.23h1.66v14.23h-1.66Z"/>
      <path class="uuid-771fc1c4-2537-4a75-b8fe-be64b92ed7d1" d="M235.13,120.87c-.9,0-1.6-.22-2.12-.65-.51-.43-.77-1.22-.77-2.35v-5.4h-1.7v-1.4h1.7l.22-2.35h1.44v2.35h2.89v1.4h-2.89v5.4c0,.62.13,1.04.38,1.26.25.22.69.33,1.32.33h1.03v1.42h-1.5Z"/>
      <path class="uuid-771fc1c4-2537-4a75-b8fe-be64b92ed7d1" d="M238.84,120.87v-14.23h1.66v6.11c.33-.61.8-1.08,1.4-1.41.61-.34,1.26-.5,1.98-.5,1.13,0,2.04.35,2.73,1.06.68.71,1.03,1.79,1.03,3.25v5.73h-1.64v-5.55c0-2.04-.82-3.06-2.47-3.06-.86,0-1.57.31-2.15.92-.58.61-.87,1.49-.87,2.62v5.08h-1.66Z"/>
      <path class="uuid-771fc1c4-2537-4a75-b8fe-be64b92ed7d1" d="M261.75,121.11c-1.36,0-2.53-.3-3.51-.9-.98-.6-1.74-1.44-2.28-2.51-.54-1.07-.81-2.32-.81-3.75s.27-2.65.81-3.73c.54-1.07,1.3-1.91,2.28-2.52.98-.61,2.15-.91,3.51-.91,1.58,0,2.87.38,3.86,1.14,1,.76,1.63,1.82,1.91,3.17h-1.84c-.21-.86-.64-1.55-1.3-2.07-.65-.52-1.53-.78-2.64-.78-.99,0-1.85.23-2.59.68s-1.31,1.11-1.71,1.96c-.4.85-.6,1.87-.6,3.05s.2,2.2.6,3.05c.4.85.97,1.5,1.71,1.96.74.45,1.6.68,2.59.68,1.11,0,1.99-.25,2.64-.76.65-.51,1.08-1.18,1.3-2.03h1.84c-.28,1.33-.91,2.37-1.91,3.12-.99.75-2.28,1.13-3.86,1.13Z"/>
      <path class="uuid-771fc1c4-2537-4a75-b8fe-be64b92ed7d1" d="M274.31,121.11c-.92,0-1.75-.21-2.49-.63-.74-.42-1.32-1.02-1.75-1.79s-.64-1.68-.64-2.72.22-1.95.65-2.72c.43-.77,1.02-1.37,1.77-1.79.74-.42,1.58-.63,2.5-.63s1.75.21,2.49.63c.74.42,1.32,1.02,1.75,1.79.43.77.64,1.68.64,2.72s-.22,1.95-.65,2.72-1.02,1.37-1.77,1.79c-.74.42-1.58.63-2.5.63ZM274.31,119.68c.57,0,1.09-.14,1.58-.42.49-.28.88-.69,1.19-1.25.3-.55.46-1.24.46-2.06s-.15-1.5-.44-2.06c-.3-.55-.69-.97-1.18-1.25-.49-.28-1.01-.42-1.56-.42s-1.09.14-1.58.42c-.49.28-.88.69-1.19,1.25-.3.55-.45,1.24-.45,2.06s.15,1.5.45,2.06c.3.55.69.97,1.18,1.25.48.28,1,.42,1.55.42Z"/>
      <path class="uuid-771fc1c4-2537-4a75-b8fe-be64b92ed7d1" d="M284.78,121.11c-.82,0-1.5-.14-2.04-.42-.54-.28-.94-.65-1.21-1.11-.26-.46-.4-.96-.4-1.5,0-1,.38-1.77,1.15-2.31.76-.54,1.81-.81,3.12-.81h2.65v-.12c0-.86-.22-1.51-.67-1.95-.45-.44-1.05-.66-1.8-.66-.65,0-1.2.16-1.67.48-.47.32-.76.79-.88,1.41h-1.7c.07-.71.31-1.31.72-1.8.42-.49.93-.86,1.55-1.12s1.28-.39,1.98-.39c1.37,0,2.4.37,3.09,1.1.69.73,1.04,1.7,1.04,2.92v6.03h-1.48l-.1-1.76c-.28.55-.68,1.02-1.22,1.41-.53.39-1.25.58-2.14.58ZM285.04,119.7c.63,0,1.18-.16,1.63-.49.45-.33.8-.76,1.04-1.28.24-.53.36-1.08.36-1.66v-.02h-2.51c-.98,0-1.66.17-2.07.5-.4.34-.6.75-.6,1.26s.19.93.56,1.24c.38.31.91.46,1.59.46Z"/>
      <path class="uuid-771fc1c4-2537-4a75-b8fe-be64b92ed7d1" d="M296.87,121.11c-.94,0-1.78-.21-2.52-.64-.74-.43-1.33-1.03-1.76-1.8s-.64-1.67-.64-2.7.21-1.93.64-2.7c.43-.77,1.01-1.37,1.76-1.8.74-.43,1.58-.64,2.52-.64,1.16,0,2.14.3,2.94.91.8.61,1.3,1.42,1.51,2.43h-1.7c-.13-.61-.46-1.08-.97-1.41s-1.11-.5-1.8-.5c-.55,0-1.07.14-1.56.42-.49.28-.88.69-1.19,1.25-.3.55-.45,1.24-.45,2.06s.15,1.5.45,2.06c.3.55.7.97,1.19,1.26.49.28,1.01.43,1.56.43.69,0,1.29-.17,1.8-.5.51-.34.84-.81.97-1.43h1.7c-.2.99-.7,1.79-1.5,2.41-.8.62-1.79.93-2.95.93Z"/>
      <path class="uuid-771fc1c4-2537-4a75-b8fe-be64b92ed7d1" d="M303.65,120.87v-14.23h1.66v6.11c.33-.61.8-1.08,1.4-1.41s1.26-.5,1.98-.5c1.13,0,2.04.35,2.73,1.06.68.71,1.03,1.79,1.03,3.25v5.73h-1.64v-5.55c0-2.04-.82-3.06-2.47-3.06-.86,0-1.57.31-2.15.92-.58.61-.87,1.49-.87,2.62v5.08h-1.66Z"/>
      <path class="uuid-771fc1c4-2537-4a75-b8fe-be64b92ed7d1" d="M316.02,108.89c-.33,0-.6-.11-.82-.33-.22-.22-.33-.49-.33-.82s.11-.58.33-.79c.22-.21.49-.32.82-.32s.59.11.81.32c.22.21.34.47.34.79s-.11.6-.34.82-.49.33-.81.33ZM315.19,120.87v-9.8h1.66v9.8h-1.66Z"/>
      <path class="uuid-771fc1c4-2537-4a75-b8fe-be64b92ed7d1" d="M319.78,120.87v-9.8h1.5l.1,1.76c.32-.62.77-1.11,1.36-1.46s1.26-.53,2.02-.53c1.16,0,2.08.35,2.78,1.06.69.71,1.04,1.79,1.04,3.25v5.73h-1.66v-5.55c0-2.04-.84-3.06-2.53-3.06-.84,0-1.55.31-2.11.92-.56.61-.84,1.49-.84,2.62v5.08h-1.66Z"/>
      <path class="uuid-771fc1c4-2537-4a75-b8fe-be64b92ed7d1" d="M335.05,117.79c-.55,0-1.06-.07-1.52-.22l-.99.93c.15.11.33.19.54.27.22.07.53.14.94.2s.98.12,1.72.19c1.32.09,2.26.4,2.83.91.57.51.85,1.19.85,2.02,0,.57-.16,1.11-.47,1.62s-.78.94-1.42,1.27c-.64.33-1.46.49-2.46.49-.88,0-1.67-.12-2.35-.35-.69-.23-1.22-.58-1.6-1.05-.38-.47-.57-1.06-.57-1.77,0-.37.1-.77.3-1.2s.57-.83,1.11-1.22c-.29-.12-.54-.25-.74-.39-.2-.14-.39-.29-.56-.46v-.45l1.68-1.66c-.78-.66-1.17-1.53-1.17-2.61,0-.65.15-1.23.46-1.76.3-.53.74-.95,1.32-1.26.58-.31,1.29-.46,2.12-.46.57,0,1.08.08,1.54.24h3.62v1.25l-1.84.08c.38.55.57,1.19.57,1.92,0,.65-.16,1.23-.47,1.76-.31.53-.75.95-1.32,1.26-.57.31-1.27.46-2.11.46ZM332.16,122.14c0,.66.28,1.15.83,1.47.55.32,1.25.48,2.08.48s1.47-.18,1.97-.53c.49-.36.74-.83.74-1.42,0-.42-.17-.79-.51-1.1-.34-.31-.98-.49-1.9-.54-.72-.05-1.35-.12-1.88-.2-.54.29-.9.6-1.07.94s-.26.64-.26.9ZM335.05,116.42c.7,0,1.26-.18,1.67-.54.42-.36.62-.89.62-1.57s-.21-1.19-.62-1.55c-.41-.36-.97-.54-1.67-.54s-1.27.18-1.69.54c-.42.36-.62.88-.62,1.55s.21,1.21.62,1.57c.41.36.98.54,1.69.54Z"/>
    </g>
    <g>
      <path class="uuid-771fc1c4-2537-4a75-b8fe-be64b92ed7d1" d="M145.46,89.1c-3.62-2.22-6.38-5.26-8.29-9.1-1.91-3.84-2.86-8.15-2.86-12.95,0-5.72,1.2-10.64,3.6-14.75,2.4-4.11,5.65-7.23,9.76-9.35,4.11-2.13,8.68-3.19,13.72-3.19,2.49,0,4.98.25,7.45.73,2.47.49,4.8,1.22,7.01,2.2v13.35h-2.93c-.44-4.3-1.66-7.41-3.67-9.32-2.01-1.91-4.84-2.86-8.51-2.86s-6.77.84-9.46,2.53c-2.69,1.69-4.77,4.16-6.24,7.41-1.47,3.25-2.2,7.2-2.2,11.85,0,7.34,1.64,12.81,4.92,16.43,3.28,3.62,7.58,5.43,12.91,5.43,3.28,0,6.14-.62,8.58-1.87,2.44-1.25,4.43-2.85,5.94-4.8l2.13,1.98c-1.71,2.79-4.16,5.09-7.34,6.9-3.18,1.81-7.02,2.72-11.52,2.72-5.04,0-9.37-1.11-12.99-3.34Z"/>
      <path class="uuid-771fc1c4-2537-4a75-b8fe-be64b92ed7d1" d="M181.06,91.48v-2.35c1.08,0,2.16-.24,3.26-.73,1.1-.49,1.65-1.52,1.65-3.08v-37.41c0-1.71-.44-2.93-1.32-3.67-.88-.73-2.27-1.1-4.18-1.1v-2.35l10.05-2.86h2.42v24.28h.51c1.17-2.1,2.73-3.8,4.66-5.1,1.93-1.3,4.22-1.94,6.86-1.94,3.28,0,5.88.98,7.81,2.93,1.93,1.96,2.9,4.67,2.9,8.14v19.07c0,1.57.55,2.59,1.65,3.08,1.1.49,2.19.73,3.26.73v2.35h-16.87v-2.35c1.12,0,2.24-.24,3.34-.73,1.1-.49,1.65-1.52,1.65-3.08v-17.17c0-5.14-2.08-7.7-6.24-7.7-1.96,0-3.78.53-5.47,1.58-1.69,1.05-3.04,2.6-4.07,4.66v18.63c0,1.57.55,2.59,1.65,3.08,1.1.49,2.21.73,3.34.73v2.35h-16.87Z"/>
      <path class="uuid-771fc1c4-2537-4a75-b8fe-be64b92ed7d1" d="M223.14,91.48v-2.35c1.12,0,2.24-.24,3.34-.73,1.1-.49,1.65-1.52,1.65-3.08v-19.29c0-1.86-.37-3.13-1.1-3.82-.73-.68-2.03-1.03-3.89-1.03v-2.42l9.32-3.52,2.2,8.73h.37c.98-2.45,2.25-4.52,3.82-6.24,1.56-1.71,3.52-2.57,5.87-2.57.83,0,1.59.1,2.27.29.68.2,1.17.42,1.47.66v9.76h-2.2c-.15-1.12-.54-2-1.17-2.64-.64-.64-1.54-.95-2.72-.95-1.03,0-2.09.45-3.19,1.36-1.1.91-2.03,2.04-2.79,3.41-.76,1.37-1.19,2.74-1.28,4.11v14.16c0,1.57.7,2.59,2.09,3.08,1.39.49,2.8.73,4.22.73v2.35h-18.27Z"/>
      <path class="uuid-771fc1c4-2537-4a75-b8fe-be64b92ed7d1" d="M258.44,90.05c-2.62-1.59-4.65-3.78-6.09-6.57-1.44-2.79-2.16-5.94-2.16-9.46s.72-6.87,2.16-9.76c1.44-2.89,3.47-5.12,6.09-6.71,2.62-1.59,5.59-2.38,8.91-2.38s6.3.78,8.91,2.35c2.62,1.57,4.66,3.75,6.13,6.57,1.47,2.81,2.2,6.05,2.2,9.72s-.71,6.76-2.13,9.57c-1.42,2.81-3.42,5.02-6.02,6.64-2.59,1.61-5.6,2.42-9.02,2.42s-6.37-.8-8.99-2.39ZM274.8,85.14c1.64-2.37,2.46-5.69,2.46-9.94,0-4.7-.92-8.58-2.75-11.66-1.83-3.08-4.39-4.62-7.67-4.62-2.79,0-5.03,1.2-6.71,3.59-1.69,2.4-2.53,5.77-2.53,10.12,0,2.98.41,5.69,1.25,8.11.83,2.42,2.05,4.35,3.67,5.8,1.61,1.44,3.52,2.16,5.72,2.16,2.74,0,4.93-1.19,6.57-3.56Z"/>
      <path class="uuid-771fc1c4-2537-4a75-b8fe-be64b92ed7d1" d="M286.47,91.48v-2.35c1.12,0,2.24-.24,3.34-.73,1.1-.49,1.65-1.52,1.65-3.08v-19.29c0-1.86-.37-3.13-1.1-3.82-.73-.68-2.03-1.03-3.89-1.03v-2.42l9.1-3.52,2.42,7.12h.44c1.22-2.2,2.84-3.95,4.84-5.25,2.01-1.3,4.38-1.94,7.12-1.94,3.33,0,5.95.98,7.89,2.93,1.93,1.96,2.9,4.67,2.9,8.14v19.07c0,1.57.55,2.59,1.65,3.08,1.1.49,2.19.73,3.26.73v2.35h-16.87v-2.35c1.12,0,2.22-.24,3.3-.73,1.08-.49,1.61-1.52,1.61-3.08v-17.17c0-5.14-2.08-7.7-6.24-7.7-1.96,0-3.78.53-5.47,1.58-1.69,1.05-3.02,2.6-4,4.66v18.63c0,1.57.55,2.59,1.65,3.08,1.1.49,2.19.73,3.26.73v2.35h-16.87Z"/>
      <path class="uuid-771fc1c4-2537-4a75-b8fe-be64b92ed7d1" d="M329.39,91.48v-2.35c1.08,0,2.16-.24,3.26-.73,1.1-.49,1.65-1.52,1.65-3.08v-19.29c0-1.22-.14-2.16-.4-2.82-.27-.66-.76-1.11-1.47-1.36-.71-.24-1.72-.37-3.04-.37v-2.35l9.24-2.93h2.64v29.12c0,1.57.55,2.59,1.65,3.08,1.1.49,2.21.73,3.34.73v2.35h-16.87ZM333.86,47.36c-.93-.9-1.39-2.04-1.39-3.41s.46-2.42,1.39-3.3c.93-.88,2.05-1.32,3.37-1.32s2.44.44,3.37,1.32c.93.88,1.39,1.98,1.39,3.3s-.47,2.51-1.39,3.41c-.93.91-2.05,1.36-3.37,1.36s-2.45-.45-3.37-1.36Z"/>
      <path class="uuid-771fc1c4-2537-4a75-b8fe-be64b92ed7d1" d="M349.55,91.48v-2.35c1.12,0,2.24-.24,3.34-.73,1.1-.49,1.65-1.52,1.65-3.08v-37.41c0-1.37-.15-2.37-.44-3.01-.29-.63-.78-1.06-1.47-1.28-.69-.22-1.71-.33-3.08-.33v-2.35l9.46-3.01h2.49v47.39c0,1.57.55,2.59,1.65,3.08,1.1.49,2.19.73,3.26.73v2.35h-16.87Z"/>
      <path class="uuid-771fc1c4-2537-4a75-b8fe-be64b92ed7d1" d="M376.27,90.05c-2.62-1.59-4.65-3.78-6.09-6.57-1.44-2.79-2.16-5.94-2.16-9.46s.72-6.87,2.16-9.76c1.44-2.89,3.47-5.12,6.09-6.71,2.62-1.59,5.59-2.38,8.91-2.38s6.3.78,8.91,2.35c2.62,1.57,4.66,3.75,6.13,6.57,1.47,2.81,2.2,6.05,2.2,9.72s-.71,6.76-2.13,9.57c-1.42,2.81-3.42,5.02-6.02,6.64-2.59,1.61-5.6,2.42-9.02,2.42s-6.37-.8-8.99-2.39ZM392.63,85.14c1.64-2.37,2.46-5.69,2.46-9.94,0-4.7-.92-8.58-2.75-11.66-1.83-3.08-4.39-4.62-7.67-4.62-2.79,0-5.02,1.2-6.71,3.59-1.69,2.4-2.53,5.77-2.53,10.12,0,2.98.42,5.69,1.25,8.11.83,2.42,2.05,4.35,3.67,5.8,1.61,1.44,3.52,2.16,5.72,2.16,2.74,0,4.93-1.19,6.57-3.56Z"/>
      <path class="uuid-771fc1c4-2537-4a75-b8fe-be64b92ed7d1" d="M411.86,106.41c-2.18-.81-3.89-1.96-5.13-3.45s-1.87-3.24-1.87-5.25c0-2.25.81-4.22,2.42-5.91s3.89-3.12,6.82-4.29l1.25,1.69c-1.76.93-3.08,1.94-3.96,3.04-.88,1.1-1.32,2.36-1.32,3.78,0,2.25.98,4.06,2.93,5.43,1.95,1.37,4.43,2.05,7.41,2.05,3.37,0,5.93-.56,7.67-1.69,1.74-1.13,2.6-2.64,2.6-4.55,0-1.17-.38-2.14-1.14-2.9-.76-.76-1.83-1.36-3.23-1.8-1.39-.44-3.44-.95-6.13-1.54-3.23-.73-5.74-1.39-7.52-1.98-1.79-.59-3.14-1.3-4.07-2.13-.93-.83-1.39-1.93-1.39-3.3,0-1.81.68-3.26,2.05-4.36,1.37-1.1,3.08-2.04,5.13-2.83l2.42,1.39c-1.52.64-2.57,1.21-3.15,1.72s-.88,1.09-.88,1.72c0,.54.24.98.73,1.32.49.34,1.34.67,2.57.99,1.22.32,3.28.77,6.16,1.36,3.47.73,6.22,1.55,8.25,2.46,2.03.91,3.5,1.98,4.4,3.23.9,1.25,1.36,2.8,1.36,4.66,0,2.15-.7,4.17-2.09,6.05-1.39,1.88-3.39,3.4-5.98,4.55-2.59,1.15-5.58,1.72-8.95,1.72-2.74,0-5.2-.4-7.37-1.21ZM410.25,75.86c-2.52-2.2-3.78-5.09-3.78-8.66,0-2.4.6-4.5,1.8-6.31,1.2-1.81,2.82-3.22,4.88-4.22,2.05-1,4.35-1.5,6.9-1.5s4.93.49,7.01,1.47c2.08.98,3.7,2.37,4.88,4.18,1.17,1.81,1.76,3.91,1.76,6.31,0,3.62-1.25,6.53-3.74,8.73-2.49,2.2-5.77,3.3-9.83,3.3s-7.35-1.1-9.87-3.3ZM425.32,74.02c1.08-1.47,1.61-3.45,1.61-5.94,0-1.81-.28-3.47-.84-4.99-.56-1.52-1.39-2.73-2.49-3.63-1.1-.9-2.41-1.36-3.93-1.36-2.01,0-3.58.73-4.73,2.2-1.15,1.47-1.72,3.45-1.72,5.94,0,1.76.29,3.4.88,4.92.59,1.52,1.45,2.74,2.6,3.67,1.15.93,2.51,1.39,4.07,1.39,1.96,0,3.47-.73,4.55-2.2ZM429.14,53.12c0-.73-.14-1.38-.4-1.94-.27-.56-.67-1.01-1.21-1.36v-2.05h6.53c.19.25.4.67.62,1.28.22.61.33,1.24.33,1.87,0,1.91-.76,3.59-2.27,5.06-1.52,1.47-3.67,2.64-6.46,3.52l-.81-1.1c2.45-1.42,3.67-3.18,3.67-5.28Z"/>
      <path class="uuid-771fc1c4-2537-4a75-b8fe-be64b92ed7d1" d="M439.48,91.48v-2.35c1.08,0,2.16-.24,3.26-.73,1.1-.49,1.65-1.52,1.65-3.08v-19.29c0-1.22-.14-2.16-.4-2.82-.27-.66-.76-1.11-1.47-1.36-.71-.24-1.72-.37-3.04-.37v-2.35l9.24-2.93h2.64v29.12c0,1.57.55,2.59,1.65,3.08,1.1.49,2.21.73,3.34.73v2.35h-16.87ZM443.95,47.36c-.93-.9-1.39-2.04-1.39-3.41s.46-2.42,1.39-3.3c.93-.88,2.05-1.32,3.37-1.32s2.44.44,3.37,1.32c.93.88,1.39,1.98,1.39,3.3s-.47,2.51-1.39,3.41c-.93.91-2.05,1.36-3.37,1.36s-2.45-.45-3.37-1.36Z"/>
      <path class="uuid-771fc1c4-2537-4a75-b8fe-be64b92ed7d1" d="M462.37,88.29c1.17-.56,2.25-1.53,3.23-2.9l9.1-11.96,2.27,2.57-7.04,9.9c-.64.88-.71,1.64-.22,2.27.49.64,1.34.95,2.57.95h.81v2.35h-13.79v-2.35c.88,0,1.91-.28,3.08-.84ZM479.82,89.14h.81c1.42,0,2.2-.28,2.35-.84.15-.56-.12-1.36-.81-2.39l-17.53-24.72c-.54-.78-1.26-1.42-2.16-1.91-.91-.49-1.72-.73-2.46-.73v-2.35h15.48v2.35c-1.61,0-2.59.4-2.93,1.21-.34.81.07,1.99,1.25,3.56l14.89,20.98c1.08,1.47,2.22,2.64,3.45,3.52,1.22.88,2.37,1.32,3.45,1.32v2.35h-15.77v-2.35ZM476.16,73.36l7.48-10.05c1.12-1.52,1.52-2.69,1.17-3.52-.34-.83-1.3-1.25-2.86-1.25v-2.35h12.69v2.35c-.98,0-1.93.23-2.86.7-.93.47-1.71,1.09-2.35,1.87l-10.78,14.16-2.49-1.91Z"/>
    </g>
  </g>
  <g>
    <path class="uuid-771fc1c4-2537-4a75-b8fe-be64b92ed7d1" d="M56.72,110.68c-24.82,0-44.95-20.12-44.95-44.95S31.9,20.78,56.72,20.78c4.27,0,8.39.61,12.31,1.72v-10.75C69.03,5.33,63.82.12,57.4.12H11.63C5.21.12,0,5.33,0,11.75v101.84c0,6.42,5.21,11.63,11.63,11.63h45.78c6.42,0,11.63-5.21,11.63-11.63v-4.63c-3.91,1.11-8.04,1.72-12.31,1.72Z"/>
    <path class="uuid-771fc1c4-2537-4a75-b8fe-be64b92ed7d1" d="M69.03,108.96c18.84-5.35,32.64-22.67,32.64-43.23s-13.8-37.88-32.64-43.23v86.46Z"/>
    <g>
      <path class="uuid-771fc1c4-2537-4a75-b8fe-be64b92ed7d1" d="M84.75,17.62c-3.35,0-6.08-2.73-6.08-6.08s2.73-6.08,6.08-6.08,6.08,2.73,6.08,6.08-2.73,6.08-6.08,6.08ZM84.75,6.69c-2.68,0-4.86,2.18-4.86,4.86s2.18,4.85,4.86,4.85,4.85-2.18,4.85-4.85-2.18-4.86-4.85-4.86Z"/>
      <path class="uuid-771fc1c4-2537-4a75-b8fe-be64b92ed7d1" d="M84.75,13.44c-1.05,0-1.9-.85-1.9-1.9s.85-1.9,1.9-1.9c.31,0,.6.08.85.21v-1.31c-.27-.08-.56-.12-.85-.12-1.72,0-3.12,1.4-3.12,3.12s1.4,3.12,3.12,3.12c.3,0,.58-.04.85-.12v-1.31c-.26.13-.55.21-.85.21Z"/>
    </g>
  </g>
</svg>