<?xml version="1.0" encoding="UTF-8"?>
<svg id="uuid-b2ee0667-6319-4b29-850a-1a7dd38c1a08" data-name="Layer 1" xmlns="http://www.w3.org/2000/svg" viewBox="0 0 102.01 125.58">
  <defs>
    <style>
      .uuid-2d8acda1-5c2d-44e7-b060-e53e1e36bfaa {
        fill: #fff;
      }
    </style>
  </defs>
  <path class="uuid-2d8acda1-5c2d-44e7-b060-e53e1e36bfaa" d="M56.94,110.99c-24.92,0-45.12-20.2-45.12-45.12S32.02,20.74,56.94,20.74c4.29,0,8.43.61,12.35,1.73v-10.8c0-6.45-5.23-11.67-11.67-11.67H11.67C5.23,0,0,5.23,0,11.67v102.24c0,6.45,5.23,11.67,11.67,11.67h45.95c6.45,0,11.67-5.23,11.67-11.67v-4.65c-3.93,1.12-8.07,1.73-12.35,1.73Z"/>
  <path class="uuid-2d8acda1-5c2d-44e7-b060-e53e1e36bfaa" d="M69.3,109.26c18.91-5.37,32.77-22.76,32.77-43.4s-13.86-38.02-32.77-43.4v86.79Z"/>
</svg>